<svg width="86" height="73" viewBox="0 0 86 73" fill="none" xmlns="http://www.w3.org/2000/svg">
<g id="Clip path group">
<mask id="mask0_282_3644" style="mask-type:luminance" maskUnits="userSpaceOnUse" x="0" y="0" width="86" height="73">
<g id="clip-path">
<path id="Vector" d="M44.364 11.1219C44.3606 12.5689 44.6889 14.002 45.3297 15.338L27.3822 27.423C24.4256 24.9745 20.5103 23.5862 16.4221 23.5366C12.3338 23.487 8.37525 24.7799 5.34084 27.1557C2.30644 29.5315 0.420808 32.8144 0.0623846 36.3455C-0.296039 39.8766 0.89929 43.3946 3.40845 46.1933C5.91762 48.992 9.5549 50.8644 13.5903 51.4347C17.6257 52.0049 21.7605 51.2307 25.1649 49.2676C28.5692 47.3044 30.9912 44.2976 31.9446 40.8506C32.898 37.4035 32.3123 33.7714 30.3051 30.6832L47.9193 18.8279C49.3395 20.1169 51.0991 21.0881 53.0472 21.6583V53.7418C50.4416 53.9218 48.0056 54.9329 46.21 56.5797C45.1764 57.4622 44.3556 58.5141 43.7953 59.6742C43.235 60.8343 42.9465 62.0795 42.9465 63.3372C42.9465 64.5949 43.235 65.84 43.7953 67.0002C44.3556 68.1603 45.1764 69.2122 46.21 70.0947C47.2184 71.0195 48.437 71.7532 49.7888 72.2492C51.1406 72.7453 52.5964 72.9931 54.0642 72.977C55.513 72.9851 56.948 72.7331 58.2791 72.2371C59.6102 71.7411 60.8085 71.0116 61.7987 70.0947C62.8391 69.2166 63.6646 68.1655 64.2255 67.0044C64.7865 65.8433 65.0715 64.596 65.0635 63.3372C65.0784 61.7601 64.6251 60.2061 63.7473 58.8248L76.9088 47.414C78.1754 47.8876 79.5844 47.9943 80.9265 47.7183C82.2686 47.4423 83.4722 46.7983 84.3585 45.882C85.2449 44.9656 85.7666 43.8259 85.8462 42.632C85.9259 41.4382 85.5592 40.2539 84.8007 39.2551C84.0421 38.2563 82.9322 37.4963 81.6357 37.0879C80.3393 36.6796 78.9255 36.6448 77.6044 36.9885C76.2833 37.3323 75.1253 38.0364 74.3025 38.9962C73.4797 39.956 73.036 41.1204 73.0373 42.3162C73.0345 43.0627 73.2091 43.8017 73.5501 44.4872L60.6364 55.6905C59.7934 55.1039 58.8506 54.634 57.8417 54.2975V22.2141C60.3462 22.1025 62.758 21.3564 64.7784 20.0683C66.7987 18.7803 68.339 17.0067 69.2084 14.9673C70.0777 12.9279 70.238 10.7122 69.6695 8.59458C69.1009 6.47696 67.8284 4.55042 66.0096 3.05352C64.1908 1.55662 61.9054 0.555113 59.4366 0.172997C56.9678 -0.209119 54.424 0.0449481 52.1201 0.903733C49.8162 1.76252 47.8534 3.1883 46.4748 5.00454C45.0961 6.82078 44.3623 8.9477 44.364 11.1219Z" fill="white"/>
</g>
</mask>
<g mask="url(#mask0_282_3644)">
<g id="Group">
<path id="Vector_2" d="M69.3498 -29.2856L-33.0874 14.0879L16.6072 102.306L119.044 58.9326L69.3498 -29.2856Z" fill="url(#paint0_linear_282_3644)"/>
</g>
</g>
</g>
<defs>
<linearGradient id="paint0_linear_282_3644" x1="5.67877" y1="53.392" x2="99.9734" y2="0.274493" gradientUnits="userSpaceOnUse">
<stop stop-color="#EF9D52"/>
<stop offset="1" stop-color="#EF5959"/>
</linearGradient>
</defs>
</svg>
