<svg width="190" height="190" viewBox="0 0 190 190" fill="none" xmlns="http://www.w3.org/2000/svg">
<g id="QR code">
<g id="Icon">
<path fill-rule="evenodd" clip-rule="evenodd" d="M28.5 38C28.5 32.7533 32.7533 28.5 38 28.5H66.5C71.7467 28.5 76 32.7533 76 38V66.5C76 71.7467 71.7467 76 66.5 76H38C32.7533 76 28.5 71.7467 28.5 66.5V38ZM47.5 57V47.5H57V57H47.5Z" fill="white"/>
<path fill-rule="evenodd" clip-rule="evenodd" d="M28.5 123.5C28.5 118.253 32.7533 114 38 114H66.5C71.7467 114 76 118.253 76 123.5V152C76 157.247 71.7467 161.5 66.5 161.5H38C32.7533 161.5 28.5 157.247 28.5 152V123.5ZM47.5 142.5V133H57V142.5H47.5Z" fill="white"/>
<path fill-rule="evenodd" clip-rule="evenodd" d="M123.5 28.5C118.253 28.5 114 32.7533 114 38V66.5C114 71.7467 118.253 76 123.5 76H152C157.247 76 161.5 71.7467 161.5 66.5V38C161.5 32.7533 157.247 28.5 152 28.5H123.5ZM133 47.5V57H142.5V47.5H133Z" fill="white"/>
<path d="M104.5 38C104.5 32.7533 100.247 28.5 95 28.5C89.7533 28.5 85.5 32.7533 85.5 38V47.5C85.5 52.7467 89.7533 57 95 57C100.247 57 104.5 52.7467 104.5 47.5V38Z" fill="white"/>
<path d="M95 66.5C100.247 66.5 104.5 70.7533 104.5 76V85.5H123.5C128.747 85.5 133 89.7533 133 95C133 100.247 128.747 104.5 123.5 104.5H95C89.7533 104.5 85.5 100.247 85.5 95V76C85.5 70.7533 89.7533 66.5 95 66.5Z" fill="white"/>
<path d="M152 85.5C146.753 85.5 142.5 89.7533 142.5 95C142.5 100.247 146.753 104.5 152 104.5C157.247 104.5 161.5 100.247 161.5 95C161.5 89.7533 157.247 85.5 152 85.5Z" fill="white"/>
<path d="M85.5 123.5C85.5 118.253 89.7533 114 95 114H104.5C109.747 114 114 118.253 114 123.5C114 128.747 109.747 133 104.5 133V152C104.5 157.247 100.247 161.5 95 161.5C89.7533 161.5 85.5 157.247 85.5 152V123.5Z" fill="white"/>
<path d="M66.5 104.5C71.7467 104.5 76 100.247 76 95C76 89.7533 71.7467 85.5 66.5 85.5H38C32.7533 85.5 28.5 89.7533 28.5 95C28.5 100.247 32.7533 104.5 38 104.5H66.5Z" fill="white"/>
<path d="M161.5 123.5C161.5 128.747 157.247 133 152 133H133C127.753 133 123.5 128.747 123.5 123.5C123.5 118.253 127.753 114 133 114H152C157.247 114 161.5 118.253 161.5 123.5Z" fill="white"/>
<path d="M152 161.5C157.247 161.5 161.5 157.247 161.5 152C161.5 146.753 157.247 142.5 152 142.5H123.5C118.253 142.5 114 146.753 114 152C114 157.247 118.253 161.5 123.5 161.5H152Z" fill="white"/>
</g>
</g>
</svg>
